<svg width="412" height="567" viewBox="0 0 412 567" fill="none" xmlns="http://www.w3.org/2000/svg">
<mask id="mask0_34_427" style="mask-type:alpha" maskUnits="userSpaceOnUse" x="0" y="0" width="412" height="567">
<rect width="412" height="567" fill="url(#paint0_linear_34_427)"/>
</mask>
<g mask="url(#mask0_34_427)">
<g style="mix-blend-mode:overlay" opacity="0.5">
<rect y="-63" width="68.4999" height="68.4999" rx="20" fill="url(#paint1_linear_34_427)"/>
<rect y="5.50006" width="68.4999" height="68.4999" rx="20" fill="url(#paint2_linear_34_427)"/>
<rect y="73.9991" width="68.4999" height="68.4999" rx="20" fill="url(#paint3_linear_34_427)"/>
<rect y="142.5" width="68.4999" height="68.4999" rx="20" fill="url(#paint4_linear_34_427)"/>
<rect y="210.999" width="68.4999" height="68.4999" rx="20" fill="url(#paint5_linear_34_427)"/>
<rect y="279.5" width="68.4999" height="68.4999" rx="20" fill="url(#paint6_linear_34_427)"/>
<rect y="348" width="68.4999" height="68.4999" rx="20" fill="url(#paint7_linear_34_427)"/>
<rect x="68.5001" y="-63" width="68.9999" height="68.4999" rx="20" fill="url(#paint8_linear_34_427)"/>
<rect x="68.5001" y="5.50006" width="68.9999" height="68.4999" rx="20" fill="url(#paint9_linear_34_427)"/>
<rect x="68.5001" y="73.9991" width="68.9999" height="68.4999" rx="20" fill="url(#paint10_linear_34_427)"/>
<rect x="68.5001" y="142.5" width="68.9999" height="68.4999" rx="20" fill="url(#paint11_linear_34_427)"/>
<rect x="68.5001" y="210.999" width="68.9999" height="68.4999" rx="20" fill="url(#paint12_linear_34_427)"/>
<rect x="68.5001" y="279.5" width="68.9999" height="68.4999" rx="20" fill="url(#paint13_linear_34_427)"/>
<rect x="68.5001" y="348" width="68.9999" height="68.4999" rx="20" fill="url(#paint14_linear_34_427)"/>
<rect x="137.5" y="-63" width="68.4999" height="68.4999" rx="20" fill="url(#paint15_linear_34_427)"/>
<rect x="137.5" y="5.50006" width="68.4999" height="68.4999" rx="20" fill="url(#paint16_linear_34_427)"/>
<rect x="137.5" y="73.9991" width="68.4999" height="68.4999" rx="20" fill="url(#paint17_linear_34_427)"/>
<rect x="137.5" y="142.5" width="68.4999" height="68.4999" rx="20" fill="url(#paint18_linear_34_427)"/>
<rect x="137.5" y="210.999" width="68.4999" height="68.4999" rx="20" fill="url(#paint19_linear_34_427)"/>
<rect x="137.5" y="279.5" width="68.4999" height="68.4999" rx="20" fill="url(#paint20_linear_34_427)"/>
<rect x="137.5" y="348" width="68.4999" height="68.4999" rx="20" fill="url(#paint21_linear_34_427)"/>
<rect y="416" width="68.4999" height="68.4999" rx="20" fill="url(#paint22_linear_34_427)"/>
<rect y="484.5" width="68.4999" height="68.4999" rx="20" fill="url(#paint23_linear_34_427)"/>
<rect y="552.999" width="68.4999" height="68.4999" rx="20" fill="url(#paint24_linear_34_427)"/>
<rect x="68.5001" y="416" width="68.9999" height="68.4999" rx="20" fill="url(#paint25_linear_34_427)"/>
<rect x="68.5001" y="484.5" width="68.9999" height="68.4999" rx="20" fill="url(#paint26_linear_34_427)"/>
<rect x="68.5001" y="552.999" width="68.9999" height="68.4999" rx="20" fill="url(#paint27_linear_34_427)"/>
<rect x="137.5" y="416" width="68.4999" height="68.4999" rx="20" fill="url(#paint28_linear_34_427)"/>
<rect x="137.5" y="484.5" width="68.4999" height="68.4999" rx="20" fill="url(#paint29_linear_34_427)"/>
<rect x="137.5" y="552.999" width="68.4999" height="68.4999" rx="20" fill="url(#paint30_linear_34_427)"/>
<rect x="206" y="-63" width="68.4999" height="68.4999" rx="20" fill="url(#paint31_linear_34_427)"/>
<rect x="206" y="5.50006" width="68.4999" height="68.4999" rx="20" fill="url(#paint32_linear_34_427)"/>
<rect x="206" y="73.9991" width="68.4999" height="68.4999" rx="20" fill="url(#paint33_linear_34_427)"/>
<rect x="206" y="142.5" width="68.4999" height="68.4999" rx="20" fill="url(#paint34_linear_34_427)"/>
<rect x="206" y="210.999" width="68.4999" height="68.4999" rx="20" fill="url(#paint35_linear_34_427)"/>
<rect x="206" y="279.5" width="68.4999" height="68.4999" rx="20" fill="url(#paint36_linear_34_427)"/>
<rect x="206" y="348" width="68.4999" height="68.4999" rx="20" fill="url(#paint37_linear_34_427)"/>
<rect x="274.501" y="-63" width="68.9999" height="68.4999" rx="20" fill="url(#paint38_linear_34_427)"/>
<rect x="274.501" y="5.50006" width="68.9999" height="68.4999" rx="20" fill="url(#paint39_linear_34_427)"/>
<rect x="274.501" y="73.9991" width="68.9999" height="68.4999" rx="20" fill="url(#paint40_linear_34_427)"/>
<rect x="274.501" y="142.5" width="68.9999" height="68.4999" rx="20" fill="url(#paint41_linear_34_427)"/>
<rect x="274.501" y="210.999" width="68.9999" height="68.4999" rx="20" fill="url(#paint42_linear_34_427)"/>
<rect x="274.501" y="279.5" width="68.9999" height="68.4999" rx="20" fill="url(#paint43_linear_34_427)"/>
<rect x="274.501" y="348" width="68.9999" height="68.4999" rx="20" fill="url(#paint44_linear_34_427)"/>
<rect x="343.501" y="-63" width="68.4999" height="68.4999" rx="20" fill="url(#paint45_linear_34_427)"/>
<rect x="343.501" y="5.50006" width="68.4999" height="68.4999" rx="20" fill="url(#paint46_linear_34_427)"/>
<rect x="343.501" y="73.9991" width="68.4999" height="68.4999" rx="20" fill="url(#paint47_linear_34_427)"/>
<rect x="343.501" y="142.5" width="68.4999" height="68.4999" rx="20" fill="url(#paint48_linear_34_427)"/>
<rect x="343.501" y="210.999" width="68.4999" height="68.4999" rx="20" fill="url(#paint49_linear_34_427)"/>
<rect x="343.501" y="279.5" width="68.4999" height="68.4999" rx="20" fill="url(#paint50_linear_34_427)"/>
<rect x="343.501" y="348" width="68.4999" height="68.4999" rx="20" fill="url(#paint51_linear_34_427)"/>
<rect x="206" y="416" width="68.4999" height="68.4999" rx="20" fill="url(#paint52_linear_34_427)"/>
<rect x="206" y="484.5" width="68.4999" height="68.4999" rx="20" fill="url(#paint53_linear_34_427)"/>
<rect x="206" y="552.999" width="68.4999" height="68.4999" rx="20" fill="url(#paint54_linear_34_427)"/>
<rect x="274.501" y="416" width="68.9999" height="68.4999" rx="20" fill="url(#paint55_linear_34_427)"/>
<rect x="274.501" y="484.5" width="68.9999" height="68.4999" rx="20" fill="url(#paint56_linear_34_427)"/>
<rect x="274.501" y="552.999" width="68.9999" height="68.4999" rx="20" fill="url(#paint57_linear_34_427)"/>
<rect x="343.501" y="416" width="68.4999" height="68.4999" rx="20" fill="url(#paint58_linear_34_427)"/>
<rect x="343.501" y="484.5" width="68.4999" height="68.4999" rx="20" fill="url(#paint59_linear_34_427)"/>
<rect x="343.501" y="552.999" width="68.4999" height="68.4999" rx="20" fill="url(#paint60_linear_34_427)"/>
</g>
</g>
<defs>
<linearGradient id="paint0_linear_34_427" x1="206" y1="0" x2="206" y2="377.546" gradientUnits="userSpaceOnUse">
<stop stop-color="#D9D9D9"/>
<stop offset="1" stop-color="#D9D9D9" stop-opacity="0"/>
</linearGradient>
<linearGradient id="paint1_linear_34_427" x1="34.25" y1="-63" x2="34.25" y2="5.49992" gradientUnits="userSpaceOnUse">
<stop stop-color="#780000"/>
<stop offset="1" stop-color="#780000" stop-opacity="0"/>
</linearGradient>
<linearGradient id="paint2_linear_34_427" x1="34.25" y1="5.50006" x2="34.25" y2="74" gradientUnits="userSpaceOnUse">
<stop stop-color="white"/>
<stop offset="1" stop-color="white" stop-opacity="0"/>
</linearGradient>
<linearGradient id="paint3_linear_34_427" x1="34.25" y1="73.9991" x2="34.25" y2="142.499" gradientUnits="userSpaceOnUse">
<stop stop-color="#780000"/>
<stop offset="1" stop-color="#780000" stop-opacity="0"/>
</linearGradient>
<linearGradient id="paint4_linear_34_427" x1="34.25" y1="142.5" x2="34.25" y2="211" gradientUnits="userSpaceOnUse">
<stop stop-color="white"/>
<stop offset="1" stop-color="white" stop-opacity="0"/>
</linearGradient>
<linearGradient id="paint5_linear_34_427" x1="34.25" y1="210.999" x2="34.25" y2="279.499" gradientUnits="userSpaceOnUse">
<stop stop-color="#780000"/>
<stop offset="1" stop-color="#780000" stop-opacity="0"/>
</linearGradient>
<linearGradient id="paint6_linear_34_427" x1="34.25" y1="279.5" x2="34.25" y2="348" gradientUnits="userSpaceOnUse">
<stop stop-color="white"/>
<stop offset="1" stop-color="white" stop-opacity="0"/>
</linearGradient>
<linearGradient id="paint7_linear_34_427" x1="34.25" y1="348" x2="34.25" y2="416.499" gradientUnits="userSpaceOnUse">
<stop stop-color="#780000"/>
<stop offset="1" stop-color="#780000" stop-opacity="0"/>
</linearGradient>
<linearGradient id="paint8_linear_34_427" x1="103" y1="-63" x2="103" y2="5.49992" gradientUnits="userSpaceOnUse">
<stop stop-color="white"/>
<stop offset="1" stop-color="white" stop-opacity="0"/>
</linearGradient>
<linearGradient id="paint9_linear_34_427" x1="103" y1="5.50006" x2="103" y2="74" gradientUnits="userSpaceOnUse">
<stop stop-color="#780000"/>
<stop offset="1" stop-color="#780000" stop-opacity="0"/>
</linearGradient>
<linearGradient id="paint10_linear_34_427" x1="103" y1="73.9991" x2="103" y2="142.499" gradientUnits="userSpaceOnUse">
<stop stop-color="white"/>
<stop offset="1" stop-color="white" stop-opacity="0"/>
</linearGradient>
<linearGradient id="paint11_linear_34_427" x1="103" y1="142.5" x2="103" y2="211" gradientUnits="userSpaceOnUse">
<stop stop-color="#780000"/>
<stop offset="1" stop-color="#780000" stop-opacity="0"/>
</linearGradient>
<linearGradient id="paint12_linear_34_427" x1="103" y1="210.999" x2="103" y2="279.499" gradientUnits="userSpaceOnUse">
<stop stop-color="white"/>
<stop offset="1" stop-color="white" stop-opacity="0"/>
</linearGradient>
<linearGradient id="paint13_linear_34_427" x1="103" y1="279.5" x2="103" y2="348" gradientUnits="userSpaceOnUse">
<stop stop-color="#780000"/>
<stop offset="1" stop-color="#780000" stop-opacity="0"/>
</linearGradient>
<linearGradient id="paint14_linear_34_427" x1="103" y1="348" x2="103" y2="416.499" gradientUnits="userSpaceOnUse">
<stop stop-color="white"/>
<stop offset="1" stop-color="white" stop-opacity="0"/>
</linearGradient>
<linearGradient id="paint15_linear_34_427" x1="171.75" y1="-63" x2="171.75" y2="5.49992" gradientUnits="userSpaceOnUse">
<stop stop-color="#780000"/>
<stop offset="1" stop-color="#780000" stop-opacity="0"/>
</linearGradient>
<linearGradient id="paint16_linear_34_427" x1="171.75" y1="5.50006" x2="171.75" y2="74" gradientUnits="userSpaceOnUse">
<stop stop-color="white"/>
<stop offset="1" stop-color="white" stop-opacity="0"/>
</linearGradient>
<linearGradient id="paint17_linear_34_427" x1="171.75" y1="73.9991" x2="171.75" y2="142.499" gradientUnits="userSpaceOnUse">
<stop stop-color="#780000"/>
<stop offset="1" stop-color="#780000" stop-opacity="0"/>
</linearGradient>
<linearGradient id="paint18_linear_34_427" x1="171.75" y1="142.5" x2="171.75" y2="211" gradientUnits="userSpaceOnUse">
<stop stop-color="white"/>
<stop offset="1" stop-color="white" stop-opacity="0"/>
</linearGradient>
<linearGradient id="paint19_linear_34_427" x1="171.75" y1="210.999" x2="171.75" y2="279.499" gradientUnits="userSpaceOnUse">
<stop stop-color="#780000"/>
<stop offset="1" stop-color="#780000" stop-opacity="0"/>
</linearGradient>
<linearGradient id="paint20_linear_34_427" x1="171.75" y1="279.5" x2="171.75" y2="348" gradientUnits="userSpaceOnUse">
<stop stop-color="white"/>
<stop offset="1" stop-color="white" stop-opacity="0"/>
</linearGradient>
<linearGradient id="paint21_linear_34_427" x1="171.75" y1="348" x2="171.75" y2="416.499" gradientUnits="userSpaceOnUse">
<stop stop-color="#780000"/>
<stop offset="1" stop-color="#780000" stop-opacity="0"/>
</linearGradient>
<linearGradient id="paint22_linear_34_427" x1="34.25" y1="416" x2="34.25" y2="484.5" gradientUnits="userSpaceOnUse">
<stop stop-color="white"/>
<stop offset="1" stop-color="white" stop-opacity="0"/>
</linearGradient>
<linearGradient id="paint23_linear_34_427" x1="34.25" y1="484.5" x2="34.25" y2="553" gradientUnits="userSpaceOnUse">
<stop stop-color="#780000"/>
<stop offset="1" stop-color="#780000" stop-opacity="0"/>
</linearGradient>
<linearGradient id="paint24_linear_34_427" x1="34.25" y1="552.999" x2="34.25" y2="621.499" gradientUnits="userSpaceOnUse">
<stop stop-color="white"/>
<stop offset="1" stop-color="white" stop-opacity="0"/>
</linearGradient>
<linearGradient id="paint25_linear_34_427" x1="103" y1="416" x2="103" y2="484.5" gradientUnits="userSpaceOnUse">
<stop stop-color="#780000"/>
<stop offset="1" stop-color="#780000" stop-opacity="0"/>
</linearGradient>
<linearGradient id="paint26_linear_34_427" x1="103" y1="484.5" x2="103" y2="553" gradientUnits="userSpaceOnUse">
<stop stop-color="white"/>
<stop offset="1" stop-color="white" stop-opacity="0"/>
</linearGradient>
<linearGradient id="paint27_linear_34_427" x1="103" y1="552.999" x2="103" y2="621.499" gradientUnits="userSpaceOnUse">
<stop stop-color="#780000"/>
<stop offset="1" stop-color="#780000" stop-opacity="0"/>
</linearGradient>
<linearGradient id="paint28_linear_34_427" x1="171.75" y1="416" x2="171.75" y2="484.5" gradientUnits="userSpaceOnUse">
<stop stop-color="white"/>
<stop offset="1" stop-color="white" stop-opacity="0"/>
</linearGradient>
<linearGradient id="paint29_linear_34_427" x1="171.75" y1="484.5" x2="171.75" y2="553" gradientUnits="userSpaceOnUse">
<stop stop-color="#780000"/>
<stop offset="1" stop-color="#780000" stop-opacity="0"/>
</linearGradient>
<linearGradient id="paint30_linear_34_427" x1="171.75" y1="552.999" x2="171.75" y2="621.499" gradientUnits="userSpaceOnUse">
<stop stop-color="white"/>
<stop offset="1" stop-color="white" stop-opacity="0"/>
</linearGradient>
<linearGradient id="paint31_linear_34_427" x1="240.25" y1="-63" x2="240.25" y2="5.49992" gradientUnits="userSpaceOnUse">
<stop stop-color="white"/>
<stop offset="1" stop-color="white" stop-opacity="0"/>
</linearGradient>
<linearGradient id="paint32_linear_34_427" x1="240.25" y1="5.50006" x2="240.25" y2="74" gradientUnits="userSpaceOnUse">
<stop stop-color="#780000"/>
<stop offset="1" stop-color="#780000" stop-opacity="0"/>
</linearGradient>
<linearGradient id="paint33_linear_34_427" x1="240.25" y1="73.9991" x2="240.25" y2="142.499" gradientUnits="userSpaceOnUse">
<stop stop-color="white"/>
<stop offset="1" stop-color="white" stop-opacity="0"/>
</linearGradient>
<linearGradient id="paint34_linear_34_427" x1="240.25" y1="142.5" x2="240.25" y2="211" gradientUnits="userSpaceOnUse">
<stop stop-color="#780000"/>
<stop offset="1" stop-color="#780000" stop-opacity="0"/>
</linearGradient>
<linearGradient id="paint35_linear_34_427" x1="240.25" y1="210.999" x2="240.25" y2="279.499" gradientUnits="userSpaceOnUse">
<stop stop-color="white"/>
<stop offset="1" stop-color="white" stop-opacity="0"/>
</linearGradient>
<linearGradient id="paint36_linear_34_427" x1="240.25" y1="279.5" x2="240.25" y2="348" gradientUnits="userSpaceOnUse">
<stop stop-color="#780000"/>
<stop offset="1" stop-color="#780000" stop-opacity="0"/>
</linearGradient>
<linearGradient id="paint37_linear_34_427" x1="240.25" y1="348" x2="240.25" y2="416.499" gradientUnits="userSpaceOnUse">
<stop stop-color="white"/>
<stop offset="1" stop-color="white" stop-opacity="0"/>
</linearGradient>
<linearGradient id="paint38_linear_34_427" x1="309.001" y1="-63" x2="309.001" y2="5.49992" gradientUnits="userSpaceOnUse">
<stop stop-color="#780000"/>
<stop offset="1" stop-color="#780000" stop-opacity="0"/>
</linearGradient>
<linearGradient id="paint39_linear_34_427" x1="309.001" y1="5.50006" x2="309.001" y2="74" gradientUnits="userSpaceOnUse">
<stop stop-color="white"/>
<stop offset="1" stop-color="white" stop-opacity="0"/>
</linearGradient>
<linearGradient id="paint40_linear_34_427" x1="309.001" y1="73.9991" x2="309.001" y2="142.499" gradientUnits="userSpaceOnUse">
<stop stop-color="#780000"/>
<stop offset="1" stop-color="#780000" stop-opacity="0"/>
</linearGradient>
<linearGradient id="paint41_linear_34_427" x1="309.001" y1="142.5" x2="309.001" y2="211" gradientUnits="userSpaceOnUse">
<stop stop-color="white"/>
<stop offset="1" stop-color="white" stop-opacity="0"/>
</linearGradient>
<linearGradient id="paint42_linear_34_427" x1="309.001" y1="210.999" x2="309.001" y2="279.499" gradientUnits="userSpaceOnUse">
<stop stop-color="#780000"/>
<stop offset="1" stop-color="#780000" stop-opacity="0"/>
</linearGradient>
<linearGradient id="paint43_linear_34_427" x1="309.001" y1="279.5" x2="309.001" y2="348" gradientUnits="userSpaceOnUse">
<stop stop-color="white"/>
<stop offset="1" stop-color="white" stop-opacity="0"/>
</linearGradient>
<linearGradient id="paint44_linear_34_427" x1="309.001" y1="348" x2="309.001" y2="416.499" gradientUnits="userSpaceOnUse">
<stop stop-color="#780000"/>
<stop offset="1" stop-color="#780000" stop-opacity="0"/>
</linearGradient>
<linearGradient id="paint45_linear_34_427" x1="377.751" y1="-63" x2="377.751" y2="5.49992" gradientUnits="userSpaceOnUse">
<stop stop-color="white"/>
<stop offset="1" stop-color="white" stop-opacity="0"/>
</linearGradient>
<linearGradient id="paint46_linear_34_427" x1="377.751" y1="5.50006" x2="377.751" y2="74" gradientUnits="userSpaceOnUse">
<stop stop-color="#780000"/>
<stop offset="1" stop-color="#780000" stop-opacity="0"/>
</linearGradient>
<linearGradient id="paint47_linear_34_427" x1="377.751" y1="73.9991" x2="377.751" y2="142.499" gradientUnits="userSpaceOnUse">
<stop stop-color="white"/>
<stop offset="1" stop-color="white" stop-opacity="0"/>
</linearGradient>
<linearGradient id="paint48_linear_34_427" x1="377.751" y1="142.5" x2="377.751" y2="211" gradientUnits="userSpaceOnUse">
<stop stop-color="#780000"/>
<stop offset="1" stop-color="#780000" stop-opacity="0"/>
</linearGradient>
<linearGradient id="paint49_linear_34_427" x1="377.751" y1="210.999" x2="377.751" y2="279.499" gradientUnits="userSpaceOnUse">
<stop stop-color="white"/>
<stop offset="1" stop-color="white" stop-opacity="0"/>
</linearGradient>
<linearGradient id="paint50_linear_34_427" x1="377.751" y1="279.5" x2="377.751" y2="348" gradientUnits="userSpaceOnUse">
<stop stop-color="#780000"/>
<stop offset="1" stop-color="#780000" stop-opacity="0"/>
</linearGradient>
<linearGradient id="paint51_linear_34_427" x1="377.751" y1="348" x2="377.751" y2="416.499" gradientUnits="userSpaceOnUse">
<stop stop-color="white"/>
<stop offset="1" stop-color="white" stop-opacity="0"/>
</linearGradient>
<linearGradient id="paint52_linear_34_427" x1="240.25" y1="416" x2="240.25" y2="484.5" gradientUnits="userSpaceOnUse">
<stop stop-color="#780000"/>
<stop offset="1" stop-color="#780000" stop-opacity="0"/>
</linearGradient>
<linearGradient id="paint53_linear_34_427" x1="240.25" y1="484.5" x2="240.25" y2="553" gradientUnits="userSpaceOnUse">
<stop stop-color="white"/>
<stop offset="1" stop-color="white" stop-opacity="0"/>
</linearGradient>
<linearGradient id="paint54_linear_34_427" x1="240.25" y1="552.999" x2="240.25" y2="621.499" gradientUnits="userSpaceOnUse">
<stop stop-color="#780000"/>
<stop offset="1" stop-color="#780000" stop-opacity="0"/>
</linearGradient>
<linearGradient id="paint55_linear_34_427" x1="309.001" y1="416" x2="309.001" y2="484.5" gradientUnits="userSpaceOnUse">
<stop stop-color="white"/>
<stop offset="1" stop-color="white" stop-opacity="0"/>
</linearGradient>
<linearGradient id="paint56_linear_34_427" x1="309.001" y1="484.5" x2="309.001" y2="553" gradientUnits="userSpaceOnUse">
<stop stop-color="#780000"/>
<stop offset="1" stop-color="#780000" stop-opacity="0"/>
</linearGradient>
<linearGradient id="paint57_linear_34_427" x1="309.001" y1="552.999" x2="309.001" y2="621.499" gradientUnits="userSpaceOnUse">
<stop stop-color="white"/>
<stop offset="1" stop-color="white" stop-opacity="0"/>
</linearGradient>
<linearGradient id="paint58_linear_34_427" x1="377.751" y1="416" x2="377.751" y2="484.5" gradientUnits="userSpaceOnUse">
<stop stop-color="#780000"/>
<stop offset="1" stop-color="#780000" stop-opacity="0"/>
</linearGradient>
<linearGradient id="paint59_linear_34_427" x1="377.751" y1="484.5" x2="377.751" y2="553" gradientUnits="userSpaceOnUse">
<stop stop-color="white"/>
<stop offset="1" stop-color="white" stop-opacity="0"/>
</linearGradient>
<linearGradient id="paint60_linear_34_427" x1="377.751" y1="552.999" x2="377.751" y2="621.499" gradientUnits="userSpaceOnUse">
<stop stop-color="#780000"/>
<stop offset="1" stop-color="#780000" stop-opacity="0"/>
</linearGradient>
</defs>
</svg>
